<?xml version="1.0" encoding="UTF-8"?>
<svg id="Layer_1" data-name="Layer 1" xmlns="http://www.w3.org/2000/svg" viewBox="0 0 300 300">
  <defs>
    <style>
      .cls-1 {
        fill: #87d6f6;
      }

      .cls-1, .cls-2, .cls-3, .cls-4, .cls-5, .cls-6, .cls-7 {
        stroke-width: 0px;
      }

      .cls-3 {
        fill: #f99f1b;
      }

      .cls-4 {
        fill: #ffc60a;
      }

      .cls-5 {
        fill: #fff;
      }

      .cls-6 {
        fill: #3a3c3e;
      }

      .cls-7 {
        fill: #0085ab;
      }
    </style>
  </defs>
  <rect class="cls-5" x="48.16" y="106.33" width="73.68" height="83.89"/>
  <g>
    <g>
      <polygon class="cls-6" points="221.35 237.37 208.27 189.54 195.37 237.37 92.03 237.37 164.64 148.37 93.27 59.65 195.35 59.65 208.25 107.5 221.38 59.65 294.91 59.65 252.08 148.37 294.88 237.37 221.35 237.37"/>
      <path class="cls-7" d="m254.93,148.38l40.52-83.93,3.55-7.36h-79.58l-1.04,3.77-10.11,36.86-9.94-36.84-1.02-3.8H.24v182.85h197.09l1.02-3.8,9.93-36.81,10.07,36.82,1.03,3.78h79.57l-3.54-7.36-40.5-84.2ZM6.48,234.8V62.24h85.9l1.07,2.21,70.42,83.93-71.05,84.2-1.07,2.22H6.48Zm216.82,0l-15.05-55.05-14.85,55.05-97.11-.08,69.63-86.35L98.01,62.3l95.37-.08,14.85,55.05,15.1-55.05h67.49l-41.59,86.15,41.57,86.43h-67.49Z"/>
      <g>
        <g>
          <rect class="cls-6" x="50.16" y="106.37" width="42.97" height="83.85"/>
          <rect class="cls-7" x="53.11" y="106.37" width="9.49" height="83.85"/>
          <rect class="cls-1" x="67.11" y="106.38" width="21.98" height="83.85"/>
        </g>
        <g>
          <path class="cls-2" d="m9.05,232.24V64.81h79.72c.16,0,.63-.02,1.36-.02,5.4,0,24.41.82,42.19,11.31,22.98,13.56,34.62,37.11,34.62,70,.04,1.56.68,40.05-23.94,65.26-13.53,13.86-32.03,20.88-55.01,20.88H9.05Zm93.41-42.02c1.17,0,11.37-.44,13.62-15.59,3.66-28.25.04-52.46,0-52.7-2.25-15.17-12.45-15.6-13.61-15.6h-52.32v83.89h52.31Z"/>
          <path class="cls-5" d="m169.41,140.72c-.65-16.02-4.26-29.94-10.75-41.42-5.98-10.59-14.4-19.14-25.03-25.41-18.34-10.82-37.93-11.67-43.5-11.67h0c-.7,0-1.18.01-1.41.02H6.48v172.56h81.52c23.69,0,42.82-7.29,56.84-21.66,19.85-20.34,23.41-49.01,24.51-61.26.57-6.34.05-11.17.05-11.17Zm-79.27-73.36c9.78,0,70.99,2.81,74.12,73.05,0,0,.67,4.2-.43,15.74-2.1,22.23-14.4,73.53-75.83,73.53H11.62V67.37h77.21s.46-.02,1.31-.02"/>
        </g>
      </g>
    </g>
    <g>
      <path class="cls-3" d="m168.44,191.8v-24.73l.94-.32c40.93-13.79,41.57-34.42,41.57-34.62.08-1.57-.29-2.71-1.09-3.43-1.03-.93-2.63-1.03-3.27-1.03-.19,0-.32,0-.35.01-1.76.07-3.04.59-4.03,1.59-2.51,2.56-2.4,7.72-2.14,9.49l.21,1.44h-31.48l-.03-1.25c-.28-10,2.92-18.02,9.49-23.84,10.83-9.6,26.96-9.87,28.76-9.87.63-.01,1.22-.02,1.81-.02,12.82,0,22.58,2.99,28.99,8.9,8.32,7.66,7.95,17.42,7.9,18.35.46,20.1-18.08,30.03-29.33,34.2h28.21v25.13h-76.16Z"/>
      <path class="cls-4" d="m208.83,106.5c37.29,0,35.41,25.94,35.41,25.94.68,28-36.57,35.51-36.57,35.51h35.45v22.57h-73.19v-22.57c42.52-14.33,42.51-35.81,42.51-35.81.26-5.3-4.3-5.75-5.84-5.75-.31,0-.5.02-.5.02-9.23.34-7.49,12.52-7.49,12.52h-28.36c-.88-32.02,35.03-32.4,36.78-32.4.04,0,.07,0,.07,0,.59-.01,1.17-.02,1.74-.02m0-2.57c-.58,0-1.17,0-1.77.02h-.04c-1.87,0-18.57.29-29.83,10.26-6.87,6.08-10.2,14.42-9.92,24.77l.07,2.5h34.61l-.41-2.88c-.21-1.51-.33-6.34,1.81-8.51.71-.72,1.62-1.08,2.86-1.13h.1s.1-.01.1-.01c0,0,0,0,0,0,.01,0,.08,0,.17,0,.35,0,1.54.05,2.2.64.64.57.72,1.64.68,2.44v.06s0,.06,0,.06c0,.03-.14,4.98-5.11,11.5-4.65,6.11-14.59,14.87-35.52,21.92l-1.89.64v26.89h79.13v-27.7h-23.1c1.6-.75,3.24-1.6,4.88-2.56,12.92-7.53,19.6-18.02,19.34-30.34.07-1.28.28-11.33-8.3-19.24-6.71-6.18-16.82-9.31-30.07-9.31h0Z"/>
    </g>
  </g>
</svg>